<svg xmlns="http://www.w3.org/2000/svg" version="1.1"
  width="610" height="610" >
  <path d="M5 5 L65 5 L5 65 Z" fill="red" stroke="black" stroke-width="1" />
  <path d="M5 65 L65 5 L65 65 Z" fill="red" stroke="black" stroke-width="1" />
  <path d="M65 5 L125 5 L65 65 Z" fill="red" stroke="black" stroke-width="1" />
  <path d="M65 65 L125 5 L125 65 Z" fill="red" stroke="black" stroke-width="1" />
  <path d="M125 5 L185 5 L125 65 Z" fill="red" stroke="black" stroke-width="1" />
  <path d="M125 65 L185 5 L185 65 Z" fill="red" stroke="black" stroke-width="1" />
  <path d="M185 5 L245 5 L185 65 Z" fill="red" stroke="black" stroke-width="1" />
  <path d="M185 65 L245 5 L245 65 Z" fill="red" stroke="black" stroke-width="1" />
  <path d="M245 5 L305 5 L245 65 Z" fill="red" stroke="black" stroke-width="1" />
  <path d="M245 65 L305 5 L305 65 Z" fill="red" stroke="black" stroke-width="1" />
  <path d="M305 5 L365 5 L305 65 Z" fill="red" stroke="black" stroke-width="1" />
  <path d="M305 65 L365 5 L365 65 Z" fill="red" stroke="black" stroke-width="1" />
  <path d="M365 5 L425 5 L365 65 Z" fill="red" stroke="black" stroke-width="1" />
  <path d="M365 65 L425 5 L425 65 Z" fill="red" stroke="black" stroke-width="1" />
  <path d="M425 5 L485 5 L425 65 Z" fill="red" stroke="black" stroke-width="1" />
  <path d="M425 65 L485 5 L485 65 Z" fill="red" stroke="black" stroke-width="1" />
  <path d="M485 5 L545 5 L485 65 Z" fill="red" stroke="black" stroke-width="1" />
  <path d="M485 65 L545 5 L545 65 Z" fill="red" stroke="black" stroke-width="1" />
  <path d="M545 5 L605 5 L545 65 Z" fill="red" stroke="black" stroke-width="1" />
  <path d="M545 65 L605 5 L605 65 Z" fill="red" stroke="black" stroke-width="1" />
  <path d="M5 65 L65 65 L5 125 Z" fill="red" stroke="black" stroke-width="1" />
  <path d="M5 125 L65 65 L65 125 Z" fill="red" stroke="black" stroke-width="1" />
  <path d="M65 65 L125 65 L65 125 Z" fill="red" stroke="black" stroke-width="1" />
  <path d="M65 125 L125 65 L125 125 Z" fill="red" stroke="black" stroke-width="1" />
  <path d="M125 65 L185 65 L125 125 Z" fill="red" stroke="black" stroke-width="1" />
  <path d="M125 125 L185 65 L185 125 Z" fill="red" stroke="black" stroke-width="1" />
  <path d="M185 65 L245 65 L185 125 Z" fill="red" stroke="black" stroke-width="1" />
  <path d="M185 125 L245 65 L245 125 Z" fill="red" stroke="black" stroke-width="1" />
  <path d="M245 65 L305 65 L245 125 Z" fill="red" stroke="black" stroke-width="1" />
  <path d="M245 125 L305 65 L305 125 Z" fill="red" stroke="black" stroke-width="1" />
  <path d="M305 65 L365 65 L305 125 Z" fill="red" stroke="black" stroke-width="1" />
  <path d="M305 125 L365 65 L365 125 Z" fill="red" stroke="black" stroke-width="1" />
  <path d="M365 65 L425 65 L365 125 Z" fill="red" stroke="black" stroke-width="1" />
  <path d="M365 125 L425 65 L425 125 Z" fill="red" stroke="black" stroke-width="1" />
  <path d="M425 65 L485 65 L425 125 Z" fill="red" stroke="black" stroke-width="1" />
  <path d="M425 125 L485 65 L485 125 Z" fill="red" stroke="black" stroke-width="1" />
  <path d="M485 65 L545 65 L485 125 Z" fill="red" stroke="black" stroke-width="1" />
  <path d="M485 125 L545 65 L545 125 Z" fill="red" stroke="black" stroke-width="1" />
  <path d="M545 65 L605 65 L545 125 Z" fill="red" stroke="black" stroke-width="1" />
  <path d="M545 125 L605 65 L605 125 Z" fill="red" stroke="black" stroke-width="1" />
  <path d="M5 125 L65 125 L5 185 Z" fill="red" stroke="black" stroke-width="1" />
  <path d="M5 185 L65 125 L65 185 Z" fill="red" stroke="black" stroke-width="1" />
  <path d="M65 125 L125 125 L65 185 Z" fill="red" stroke="black" stroke-width="1" />
  <path d="M65 185 L125 125 L125 185 Z" fill="red" stroke="black" stroke-width="1" />
  <path d="M125 125 L185 125 L125 185 Z" fill="red" stroke="black" stroke-width="1" />
  <path d="M125 185 L185 125 L185 185 Z" fill="red" stroke="black" stroke-width="1" />
  <path d="M185 125 L245 125 L185 185 Z" fill="red" stroke="black" stroke-width="1" />
  <path d="M185 185 L245 125 L245 185 Z" fill="red" stroke="black" stroke-width="1" />
  <path d="M245 125 L305 125 L245 185 Z" fill="red" stroke="black" stroke-width="1" />
  <path d="M245 185 L305 125 L305 185 Z" fill="red" stroke="black" stroke-width="1" />
  <path d="M305 125 L365 125 L305 185 Z" fill="red" stroke="black" stroke-width="1" />
  <path d="M305 185 L365 125 L365 185 Z" fill="red" stroke="black" stroke-width="1" />
  <path d="M365 125 L425 125 L365 185 Z" fill="red" stroke="black" stroke-width="1" />
  <path d="M365 185 L425 125 L425 185 Z" fill="red" stroke="black" stroke-width="1" />
  <path d="M425 125 L485 125 L425 185 Z" fill="red" stroke="black" stroke-width="1" />
  <path d="M425 185 L485 125 L485 185 Z" fill="red" stroke="black" stroke-width="1" />
  <path d="M485 125 L545 125 L485 185 Z" fill="red" stroke="black" stroke-width="1" />
  <path d="M485 185 L545 125 L545 185 Z" fill="red" stroke="black" stroke-width="1" />
  <path d="M545 125 L605 125 L545 185 Z" fill="red" stroke="black" stroke-width="1" />
  <path d="M545 185 L605 125 L605 185 Z" fill="red" stroke="black" stroke-width="1" />
  <path d="M5 185 L65 185 L5 245 Z" fill="red" stroke="black" stroke-width="1" />
  <path d="M5 245 L65 185 L65 245 Z" fill="red" stroke="black" stroke-width="1" />
  <path d="M65 185 L125 185 L65 245 Z" fill="red" stroke="black" stroke-width="1" />
  <path d="M65 245 L125 185 L125 245 Z" fill="red" stroke="black" stroke-width="1" />
  <path d="M125 185 L185 185 L125 245 Z" fill="red" stroke="black" stroke-width="1" />
  <path d="M125 245 L185 185 L185 245 Z" fill="red" stroke="black" stroke-width="1" />
  <path d="M185 185 L245 185 L185 245 Z" fill="red" stroke="black" stroke-width="1" />
  <path d="M185 245 L245 185 L245 245 Z" fill="red" stroke="black" stroke-width="1" />
  <path d="M245 185 L305 185 L245 245 Z" fill="red" stroke="black" stroke-width="1" />
  <path d="M245 245 L305 185 L305 245 Z" fill="red" stroke="black" stroke-width="1" />
  <path d="M305 185 L365 185 L305 245 Z" fill="red" stroke="black" stroke-width="1" />
  <path d="M305 245 L365 185 L365 245 Z" fill="red" stroke="black" stroke-width="1" />
  <path d="M365 185 L425 185 L365 245 Z" fill="red" stroke="black" stroke-width="1" />
  <path d="M365 245 L425 185 L425 245 Z" fill="red" stroke="black" stroke-width="1" />
  <path d="M425 185 L485 185 L425 245 Z" fill="red" stroke="black" stroke-width="1" />
  <path d="M425 245 L485 185 L485 245 Z" fill="red" stroke="black" stroke-width="1" />
  <path d="M485 185 L545 185 L485 245 Z" fill="red" stroke="black" stroke-width="1" />
  <path d="M485 245 L545 185 L545 245 Z" fill="red" stroke="black" stroke-width="1" />
  <path d="M545 185 L605 185 L545 245 Z" fill="red" stroke="black" stroke-width="1" />
  <path d="M545 245 L605 185 L605 245 Z" fill="red" stroke="black" stroke-width="1" />
  <path d="M5 245 L65 245 L5 305 Z" fill="red" stroke="black" stroke-width="1" />
  <path d="M5 305 L65 245 L65 305 Z" fill="red" stroke="black" stroke-width="1" />
  <path d="M65 245 L125 245 L65 305 Z" fill="red" stroke="black" stroke-width="1" />
  <path d="M65 305 L125 245 L125 305 Z" fill="red" stroke="black" stroke-width="1" />
  <path d="M125 245 L185 245 L125 305 Z" fill="red" stroke="black" stroke-width="1" />
  <path d="M125 305 L185 245 L185 305 Z" fill="red" stroke="black" stroke-width="1" />
  <path d="M185 245 L245 245 L185 305 Z" fill="red" stroke="black" stroke-width="1" />
  <path d="M185 305 L245 245 L245 305 Z" fill="red" stroke="black" stroke-width="1" />
  <path d="M245 245 L305 245 L245 305 Z" fill="red" stroke="black" stroke-width="1" />
  <path d="M245 305 L305 245 L305 305 Z" fill="red" stroke="black" stroke-width="1" />
  <path d="M305 245 L365 245 L305 305 Z" fill="red" stroke="black" stroke-width="1" />
  <path d="M305 305 L365 245 L365 305 Z" fill="red" stroke="black" stroke-width="1" />
  <path d="M365 245 L425 245 L365 305 Z" fill="red" stroke="black" stroke-width="1" />
  <path d="M365 305 L425 245 L425 305 Z" fill="red" stroke="black" stroke-width="1" />
  <path d="M425 245 L485 245 L425 305 Z" fill="red" stroke="black" stroke-width="1" />
  <path d="M425 305 L485 245 L485 305 Z" fill="red" stroke="black" stroke-width="1" />
  <path d="M485 245 L545 245 L485 305 Z" fill="red" stroke="black" stroke-width="1" />
  <path d="M485 305 L545 245 L545 305 Z" fill="red" stroke="black" stroke-width="1" />
  <path d="M545 245 L605 245 L545 305 Z" fill="red" stroke="black" stroke-width="1" />
  <path d="M545 305 L605 245 L605 305 Z" fill="red" stroke="black" stroke-width="1" />
  <path d="M5 305 L65 305 L5 365 Z" fill="red" stroke="black" stroke-width="1" />
  <path d="M5 365 L65 305 L65 365 Z" fill="red" stroke="black" stroke-width="1" />
  <path d="M65 305 L125 305 L65 365 Z" fill="red" stroke="black" stroke-width="1" />
  <path d="M65 365 L125 305 L125 365 Z" fill="red" stroke="black" stroke-width="1" />
  <path d="M125 305 L185 305 L125 365 Z" fill="red" stroke="black" stroke-width="1" />
  <path d="M125 365 L185 305 L185 365 Z" fill="red" stroke="black" stroke-width="1" />
  <path d="M185 305 L245 305 L185 365 Z" fill="red" stroke="black" stroke-width="1" />
  <path d="M185 365 L245 305 L245 365 Z" fill="red" stroke="black" stroke-width="1" />
  <path d="M245 305 L305 305 L245 365 Z" fill="red" stroke="black" stroke-width="1" />
  <path d="M245 365 L305 305 L305 365 Z" fill="red" stroke="black" stroke-width="1" />
  <path d="M305 305 L365 305 L305 365 Z" fill="red" stroke="black" stroke-width="1" />
  <path d="M305 365 L365 305 L365 365 Z" fill="red" stroke="black" stroke-width="1" />
  <path d="M365 305 L425 305 L365 365 Z" fill="red" stroke="black" stroke-width="1" />
  <path d="M365 365 L425 305 L425 365 Z" fill="red" stroke="black" stroke-width="1" />
  <path d="M425 305 L485 305 L425 365 Z" fill="red" stroke="black" stroke-width="1" />
  <path d="M425 365 L485 305 L485 365 Z" fill="red" stroke="black" stroke-width="1" />
  <path d="M485 305 L545 305 L485 365 Z" fill="red" stroke="black" stroke-width="1" />
  <path d="M485 365 L545 305 L545 365 Z" fill="red" stroke="black" stroke-width="1" />
  <path d="M545 305 L605 305 L545 365 Z" fill="red" stroke="black" stroke-width="1" />
  <path d="M545 365 L605 305 L605 365 Z" fill="red" stroke="black" stroke-width="1" />
  <path d="M5 365 L65 365 L5 425 Z" fill="red" stroke="black" stroke-width="1" />
  <path d="M5 425 L65 365 L65 425 Z" fill="red" stroke="black" stroke-width="1" />
  <path d="M65 365 L125 365 L65 425 Z" fill="red" stroke="black" stroke-width="1" />
  <path d="M65 425 L125 365 L125 425 Z" fill="red" stroke="black" stroke-width="1" />
  <path d="M125 365 L185 365 L125 425 Z" fill="red" stroke="black" stroke-width="1" />
  <path d="M125 425 L185 365 L185 425 Z" fill="red" stroke="black" stroke-width="1" />
  <path d="M185 365 L245 365 L185 425 Z" fill="red" stroke="black" stroke-width="1" />
  <path d="M185 425 L245 365 L245 425 Z" fill="red" stroke="black" stroke-width="1" />
  <path d="M245 365 L305 365 L245 425 Z" fill="red" stroke="black" stroke-width="1" />
  <path d="M245 425 L305 365 L305 425 Z" fill="red" stroke="black" stroke-width="1" />
  <path d="M305 365 L365 365 L305 425 Z" fill="red" stroke="black" stroke-width="1" />
  <path d="M305 425 L365 365 L365 425 Z" fill="red" stroke="black" stroke-width="1" />
  <path d="M365 365 L425 365 L365 425 Z" fill="red" stroke="black" stroke-width="1" />
  <path d="M365 425 L425 365 L425 425 Z" fill="red" stroke="black" stroke-width="1" />
  <path d="M425 365 L485 365 L425 425 Z" fill="red" stroke="black" stroke-width="1" />
  <path d="M425 425 L485 365 L485 425 Z" fill="red" stroke="black" stroke-width="1" />
  <path d="M485 365 L545 365 L485 425 Z" fill="red" stroke="black" stroke-width="1" />
  <path d="M485 425 L545 365 L545 425 Z" fill="red" stroke="black" stroke-width="1" />
  <path d="M545 365 L605 365 L545 425 Z" fill="red" stroke="black" stroke-width="1" />
  <path d="M545 425 L605 365 L605 425 Z" fill="red" stroke="black" stroke-width="1" />
  <path d="M5 425 L65 425 L5 485 Z" fill="red" stroke="black" stroke-width="1" />
  <path d="M5 485 L65 425 L65 485 Z" fill="red" stroke="black" stroke-width="1" />
  <path d="M65 425 L125 425 L65 485 Z" fill="red" stroke="black" stroke-width="1" />
  <path d="M65 485 L125 425 L125 485 Z" fill="red" stroke="black" stroke-width="1" />
  <path d="M125 425 L185 425 L125 485 Z" fill="red" stroke="black" stroke-width="1" />
  <path d="M125 485 L185 425 L185 485 Z" fill="red" stroke="black" stroke-width="1" />
  <path d="M185 425 L245 425 L185 485 Z" fill="red" stroke="black" stroke-width="1" />
  <path d="M185 485 L245 425 L245 485 Z" fill="red" stroke="black" stroke-width="1" />
  <path d="M245 425 L305 425 L245 485 Z" fill="red" stroke="black" stroke-width="1" />
  <path d="M245 485 L305 425 L305 485 Z" fill="red" stroke="black" stroke-width="1" />
  <path d="M305 425 L365 425 L305 485 Z" fill="red" stroke="black" stroke-width="1" />
  <path d="M305 485 L365 425 L365 485 Z" fill="red" stroke="black" stroke-width="1" />
  <path d="M365 425 L425 425 L365 485 Z" fill="red" stroke="black" stroke-width="1" />
  <path d="M365 485 L425 425 L425 485 Z" fill="red" stroke="black" stroke-width="1" />
  <path d="M425 425 L485 425 L425 485 Z" fill="red" stroke="black" stroke-width="1" />
  <path d="M425 485 L485 425 L485 485 Z" fill="red" stroke="black" stroke-width="1" />
  <path d="M485 425 L545 425 L485 485 Z" fill="red" stroke="black" stroke-width="1" />
  <path d="M485 485 L545 425 L545 485 Z" fill="red" stroke="black" stroke-width="1" />
  <path d="M545 425 L605 425 L545 485 Z" fill="red" stroke="black" stroke-width="1" />
  <path d="M545 485 L605 425 L605 485 Z" fill="red" stroke="black" stroke-width="1" />
  <path d="M5 485 L65 485 L5 545 Z" fill="red" stroke="black" stroke-width="1" />
  <path d="M5 545 L65 485 L65 545 Z" fill="red" stroke="black" stroke-width="1" />
  <path d="M65 485 L125 485 L65 545 Z" fill="red" stroke="black" stroke-width="1" />
  <path d="M65 545 L125 485 L125 545 Z" fill="red" stroke="black" stroke-width="1" />
  <path d="M125 485 L185 485 L125 545 Z" fill="red" stroke="black" stroke-width="1" />
  <path d="M125 545 L185 485 L185 545 Z" fill="red" stroke="black" stroke-width="1" />
  <path d="M185 485 L245 485 L185 545 Z" fill="red" stroke="black" stroke-width="1" />
  <path d="M185 545 L245 485 L245 545 Z" fill="red" stroke="black" stroke-width="1" />
  <path d="M245 485 L305 485 L245 545 Z" fill="red" stroke="black" stroke-width="1" />
  <path d="M245 545 L305 485 L305 545 Z" fill="red" stroke="black" stroke-width="1" />
  <path d="M305 485 L365 485 L305 545 Z" fill="red" stroke="black" stroke-width="1" />
  <path d="M305 545 L365 485 L365 545 Z" fill="red" stroke="black" stroke-width="1" />
  <path d="M365 485 L425 485 L365 545 Z" fill="red" stroke="black" stroke-width="1" />
  <path d="M365 545 L425 485 L425 545 Z" fill="red" stroke="black" stroke-width="1" />
  <path d="M425 485 L485 485 L425 545 Z" fill="red" stroke="black" stroke-width="1" />
  <path d="M425 545 L485 485 L485 545 Z" fill="red" stroke="black" stroke-width="1" />
  <path d="M485 485 L545 485 L485 545 Z" fill="red" stroke="black" stroke-width="1" />
  <path d="M485 545 L545 485 L545 545 Z" fill="red" stroke="black" stroke-width="1" />
  <path d="M545 485 L605 485 L545 545 Z" fill="red" stroke="black" stroke-width="1" />
  <path d="M545 545 L605 485 L605 545 Z" fill="red" stroke="black" stroke-width="1" />
  <path d="M5 545 L65 545 L5 605 Z" fill="red" stroke="black" stroke-width="1" />
  <path d="M5 605 L65 545 L65 605 Z" fill="red" stroke="black" stroke-width="1" />
  <path d="M65 545 L125 545 L65 605 Z" fill="red" stroke="black" stroke-width="1" />
  <path d="M65 605 L125 545 L125 605 Z" fill="red" stroke="black" stroke-width="1" />
  <path d="M125 545 L185 545 L125 605 Z" fill="red" stroke="black" stroke-width="1" />
  <path d="M125 605 L185 545 L185 605 Z" fill="red" stroke="black" stroke-width="1" />
  <path d="M185 545 L245 545 L185 605 Z" fill="red" stroke="black" stroke-width="1" />
  <path d="M185 605 L245 545 L245 605 Z" fill="red" stroke="black" stroke-width="1" />
  <path d="M245 545 L305 545 L245 605 Z" fill="red" stroke="black" stroke-width="1" />
  <path d="M245 605 L305 545 L305 605 Z" fill="red" stroke="black" stroke-width="1" />
  <path d="M305 545 L365 545 L305 605 Z" fill="red" stroke="black" stroke-width="1" />
  <path d="M305 605 L365 545 L365 605 Z" fill="red" stroke="black" stroke-width="1" />
  <path d="M365 545 L425 545 L365 605 Z" fill="red" stroke="black" stroke-width="1" />
  <path d="M365 605 L425 545 L425 605 Z" fill="red" stroke="black" stroke-width="1" />
  <path d="M425 545 L485 545 L425 605 Z" fill="red" stroke="black" stroke-width="1" />
  <path d="M425 605 L485 545 L485 605 Z" fill="red" stroke="black" stroke-width="1" />
  <path d="M485 545 L545 545 L485 605 Z" fill="red" stroke="black" stroke-width="1" />
  <path d="M485 605 L545 545 L545 605 Z" fill="red" stroke="black" stroke-width="1" />
  <path d="M545 545 L605 545 L545 605 Z" fill="red" stroke="black" stroke-width="1" />
  <path d="M545 605 L605 545 L605 605 Z" fill="red" stroke="black" stroke-width="1" />
</svg>
