<svg xmlns="http://www.w3.org/2000/svg" version="1.1"
  width="610" height="530" >
  <path d="M5 5 L72 5 L38 63 Z" fill="red" stroke="black" stroke-width="1" />
  <path d="M72 5 L105 63 L38 63 Z" fill="red" stroke="black" stroke-width="1" />
  <path d="M72 5 L138 5 L105 63 Z" fill="red" stroke="black" stroke-width="1" />
  <path d="M138 5 L172 63 L105 63 Z" fill="red" stroke="black" stroke-width="1" />
  <path d="M138 5 L205 5 L172 63 Z" fill="red" stroke="black" stroke-width="1" />
  <path d="M205 5 L238 63 L172 63 Z" fill="red" stroke="black" stroke-width="1" />
  <path d="M205 5 L272 5 L238 63 Z" fill="red" stroke="black" stroke-width="1" />
  <path d="M272 5 L305 63 L238 63 Z" fill="red" stroke="black" stroke-width="1" />
  <path d="M272 5 L338 5 L305 63 Z" fill="red" stroke="black" stroke-width="1" />
  <path d="M338 5 L372 63 L305 63 Z" fill="red" stroke="black" stroke-width="1" />
  <path d="M338 5 L405 5 L372 63 Z" fill="red" stroke="black" stroke-width="1" />
  <path d="M405 5 L438 63 L372 63 Z" fill="red" stroke="black" stroke-width="1" />
  <path d="M405 5 L472 5 L438 63 Z" fill="red" stroke="black" stroke-width="1" />
  <path d="M472 5 L505 63 L438 63 Z" fill="red" stroke="black" stroke-width="1" />
  <path d="M472 5 L538 5 L505 63 Z" fill="red" stroke="black" stroke-width="1" />
  <path d="M538 5 L572 63 L505 63 Z" fill="red" stroke="black" stroke-width="1" />
  <path d="M538 5 L605 5 L572 63 Z" fill="red" stroke="black" stroke-width="1" />
  <path d="M38 63 L105 63 L72 120 Z" fill="red" stroke="black" stroke-width="1" />
  <path d="M105 63 L138 120 L72 120 Z" fill="red" stroke="black" stroke-width="1" />
  <path d="M105 63 L172 63 L138 120 Z" fill="red" stroke="black" stroke-width="1" />
  <path d="M172 63 L205 120 L138 120 Z" fill="red" stroke="black" stroke-width="1" />
  <path d="M172 63 L238 63 L205 120 Z" fill="red" stroke="black" stroke-width="1" />
  <path d="M238 63 L272 120 L205 120 Z" fill="red" stroke="black" stroke-width="1" />
  <path d="M238 63 L305 63 L272 120 Z" fill="red" stroke="black" stroke-width="1" />
  <path d="M305 63 L338 120 L272 120 Z" fill="red" stroke="black" stroke-width="1" />
  <path d="M305 63 L372 63 L338 120 Z" fill="red" stroke="black" stroke-width="1" />
  <path d="M372 63 L405 120 L338 120 Z" fill="red" stroke="black" stroke-width="1" />
  <path d="M372 63 L438 63 L405 120 Z" fill="red" stroke="black" stroke-width="1" />
  <path d="M438 63 L472 120 L405 120 Z" fill="red" stroke="black" stroke-width="1" />
  <path d="M438 63 L505 63 L472 120 Z" fill="red" stroke="black" stroke-width="1" />
  <path d="M505 63 L538 120 L472 120 Z" fill="red" stroke="black" stroke-width="1" />
  <path d="M505 63 L572 63 L538 120 Z" fill="red" stroke="black" stroke-width="1" />
  <path d="M72 120 L138 120 L105 178 Z" fill="red" stroke="black" stroke-width="1" />
  <path d="M138 120 L172 178 L105 178 Z" fill="red" stroke="black" stroke-width="1" />
  <path d="M138 120 L205 120 L172 178 Z" fill="red" stroke="black" stroke-width="1" />
  <path d="M205 120 L238 178 L172 178 Z" fill="red" stroke="black" stroke-width="1" />
  <path d="M205 120 L272 120 L238 178 Z" fill="red" stroke="black" stroke-width="1" />
  <path d="M272 120 L305 178 L238 178 Z" fill="red" stroke="black" stroke-width="1" />
  <path d="M272 120 L338 120 L305 178 Z" fill="red" stroke="black" stroke-width="1" />
  <path d="M338 120 L372 178 L305 178 Z" fill="red" stroke="black" stroke-width="1" />
  <path d="M338 120 L405 120 L372 178 Z" fill="red" stroke="black" stroke-width="1" />
  <path d="M405 120 L438 178 L372 178 Z" fill="red" stroke="black" stroke-width="1" />
  <path d="M405 120 L472 120 L438 178 Z" fill="red" stroke="black" stroke-width="1" />
  <path d="M472 120 L505 178 L438 178 Z" fill="red" stroke="black" stroke-width="1" />
  <path d="M472 120 L538 120 L505 178 Z" fill="red" stroke="black" stroke-width="1" />
  <path d="M105 178 L172 178 L138 236 Z" fill="red" stroke="black" stroke-width="1" />
  <path d="M172 178 L205 236 L138 236 Z" fill="red" stroke="black" stroke-width="1" />
  <path d="M172 178 L238 178 L205 236 Z" fill="red" stroke="black" stroke-width="1" />
  <path d="M238 178 L272 236 L205 236 Z" fill="red" stroke="black" stroke-width="1" />
  <path d="M238 178 L305 178 L272 236 Z" fill="red" stroke="black" stroke-width="1" />
  <path d="M305 178 L338 236 L272 236 Z" fill="red" stroke="black" stroke-width="1" />
  <path d="M305 178 L372 178 L338 236 Z" fill="red" stroke="black" stroke-width="1" />
  <path d="M372 178 L405 236 L338 236 Z" fill="red" stroke="black" stroke-width="1" />
  <path d="M372 178 L438 178 L405 236 Z" fill="red" stroke="black" stroke-width="1" />
  <path d="M438 178 L472 236 L405 236 Z" fill="red" stroke="black" stroke-width="1" />
  <path d="M438 178 L505 178 L472 236 Z" fill="red" stroke="black" stroke-width="1" />
  <path d="M138 236 L205 236 L172 294 Z" fill="red" stroke="black" stroke-width="1" />
  <path d="M205 236 L238 294 L172 294 Z" fill="red" stroke="black" stroke-width="1" />
  <path d="M205 236 L272 236 L238 294 Z" fill="red" stroke="black" stroke-width="1" />
  <path d="M272 236 L305 294 L238 294 Z" fill="red" stroke="black" stroke-width="1" />
  <path d="M272 236 L338 236 L305 294 Z" fill="red" stroke="black" stroke-width="1" />
  <path d="M338 236 L372 294 L305 294 Z" fill="red" stroke="black" stroke-width="1" />
  <path d="M338 236 L405 236 L372 294 Z" fill="red" stroke="black" stroke-width="1" />
  <path d="M405 236 L438 294 L372 294 Z" fill="red" stroke="black" stroke-width="1" />
  <path d="M405 236 L472 236 L438 294 Z" fill="red" stroke="black" stroke-width="1" />
  <path d="M172 294 L238 294 L205 351 Z" fill="red" stroke="black" stroke-width="1" />
  <path d="M238 294 L272 351 L205 351 Z" fill="red" stroke="black" stroke-width="1" />
  <path d="M238 294 L305 294 L272 351 Z" fill="red" stroke="black" stroke-width="1" />
  <path d="M305 294 L338 351 L272 351 Z" fill="red" stroke="black" stroke-width="1" />
  <path d="M305 294 L372 294 L338 351 Z" fill="red" stroke="black" stroke-width="1" />
  <path d="M372 294 L405 351 L338 351 Z" fill="red" stroke="black" stroke-width="1" />
  <path d="M372 294 L438 294 L405 351 Z" fill="red" stroke="black" stroke-width="1" />
  <path d="M205 351 L272 351 L238 409 Z" fill="red" stroke="black" stroke-width="1" />
  <path d="M272 351 L305 409 L238 409 Z" fill="red" stroke="black" stroke-width="1" />
  <path d="M272 351 L338 351 L305 409 Z" fill="red" stroke="black" stroke-width="1" />
  <path d="M338 351 L372 409 L305 409 Z" fill="red" stroke="black" stroke-width="1" />
  <path d="M338 351 L405 351 L372 409 Z" fill="red" stroke="black" stroke-width="1" />
  <path d="M238 409 L305 409 L272 467 Z" fill="red" stroke="black" stroke-width="1" />
  <path d="M305 409 L338 467 L272 467 Z" fill="red" stroke="black" stroke-width="1" />
  <path d="M305 409 L372 409 L338 467 Z" fill="red" stroke="black" stroke-width="1" />
  <path d="M272 467 L338 467 L305 525 Z" fill="red" stroke="black" stroke-width="1" />
</svg>
