<svg xmlns="http://www.w3.org/2000/svg" version="1.1"
  width="610" height="610" >
  <path d="M5 5 L72 5 L5 72 Z" fill="red" stroke="black" stroke-width="1" />
  <path d="M72 5 L72 72 L5 72 Z" fill="red" stroke="black" stroke-width="1" />
  <path d="M72 5 L138 5 L72 72 Z" fill="red" stroke="black" stroke-width="1" />
  <path d="M138 5 L138 72 L72 72 Z" fill="red" stroke="black" stroke-width="1" />
  <path d="M138 5 L205 5 L138 72 Z" fill="red" stroke="black" stroke-width="1" />
  <path d="M205 5 L205 72 L138 72 Z" fill="red" stroke="black" stroke-width="1" />
  <path d="M205 5 L272 5 L205 72 Z" fill="red" stroke="black" stroke-width="1" />
  <path d="M272 5 L272 72 L205 72 Z" fill="red" stroke="black" stroke-width="1" />
  <path d="M272 5 L338 5 L272 72 Z" fill="red" stroke="black" stroke-width="1" />
  <path d="M338 5 L338 72 L272 72 Z" fill="red" stroke="black" stroke-width="1" />
  <path d="M338 5 L405 5 L338 72 Z" fill="red" stroke="black" stroke-width="1" />
  <path d="M405 5 L405 72 L338 72 Z" fill="red" stroke="black" stroke-width="1" />
  <path d="M405 5 L472 5 L405 72 Z" fill="red" stroke="black" stroke-width="1" />
  <path d="M472 5 L472 72 L405 72 Z" fill="red" stroke="black" stroke-width="1" />
  <path d="M472 5 L538 5 L472 72 Z" fill="red" stroke="black" stroke-width="1" />
  <path d="M538 5 L538 72 L472 72 Z" fill="red" stroke="black" stroke-width="1" />
  <path d="M538 5 L605 5 L538 72 Z" fill="red" stroke="black" stroke-width="1" />
  <path d="M5 72 L72 72 L5 138 Z" fill="red" stroke="black" stroke-width="1" />
  <path d="M72 72 L72 138 L5 138 Z" fill="red" stroke="black" stroke-width="1" />
  <path d="M72 72 L138 72 L72 138 Z" fill="red" stroke="black" stroke-width="1" />
  <path d="M138 72 L138 138 L72 138 Z" fill="red" stroke="black" stroke-width="1" />
  <path d="M138 72 L205 72 L138 138 Z" fill="red" stroke="black" stroke-width="1" />
  <path d="M205 72 L205 138 L138 138 Z" fill="red" stroke="black" stroke-width="1" />
  <path d="M205 72 L272 72 L205 138 Z" fill="red" stroke="black" stroke-width="1" />
  <path d="M272 72 L272 138 L205 138 Z" fill="red" stroke="black" stroke-width="1" />
  <path d="M272 72 L338 72 L272 138 Z" fill="red" stroke="black" stroke-width="1" />
  <path d="M338 72 L338 138 L272 138 Z" fill="red" stroke="black" stroke-width="1" />
  <path d="M338 72 L405 72 L338 138 Z" fill="red" stroke="black" stroke-width="1" />
  <path d="M405 72 L405 138 L338 138 Z" fill="red" stroke="black" stroke-width="1" />
  <path d="M405 72 L472 72 L405 138 Z" fill="red" stroke="black" stroke-width="1" />
  <path d="M472 72 L472 138 L405 138 Z" fill="red" stroke="black" stroke-width="1" />
  <path d="M472 72 L538 72 L472 138 Z" fill="red" stroke="black" stroke-width="1" />
  <path d="M5 138 L72 138 L5 205 Z" fill="red" stroke="black" stroke-width="1" />
  <path d="M72 138 L72 205 L5 205 Z" fill="red" stroke="black" stroke-width="1" />
  <path d="M72 138 L138 138 L72 205 Z" fill="red" stroke="black" stroke-width="1" />
  <path d="M138 138 L138 205 L72 205 Z" fill="red" stroke="black" stroke-width="1" />
  <path d="M138 138 L205 138 L138 205 Z" fill="red" stroke="black" stroke-width="1" />
  <path d="M205 138 L205 205 L138 205 Z" fill="red" stroke="black" stroke-width="1" />
  <path d="M205 138 L272 138 L205 205 Z" fill="red" stroke="black" stroke-width="1" />
  <path d="M272 138 L272 205 L205 205 Z" fill="red" stroke="black" stroke-width="1" />
  <path d="M272 138 L338 138 L272 205 Z" fill="red" stroke="black" stroke-width="1" />
  <path d="M338 138 L338 205 L272 205 Z" fill="red" stroke="black" stroke-width="1" />
  <path d="M338 138 L405 138 L338 205 Z" fill="red" stroke="black" stroke-width="1" />
  <path d="M405 138 L405 205 L338 205 Z" fill="red" stroke="black" stroke-width="1" />
  <path d="M405 138 L472 138 L405 205 Z" fill="red" stroke="black" stroke-width="1" />
  <path d="M5 205 L72 205 L5 272 Z" fill="red" stroke="black" stroke-width="1" />
  <path d="M72 205 L72 272 L5 272 Z" fill="red" stroke="black" stroke-width="1" />
  <path d="M72 205 L138 205 L72 272 Z" fill="red" stroke="black" stroke-width="1" />
  <path d="M138 205 L138 272 L72 272 Z" fill="red" stroke="black" stroke-width="1" />
  <path d="M138 205 L205 205 L138 272 Z" fill="red" stroke="black" stroke-width="1" />
  <path d="M205 205 L205 272 L138 272 Z" fill="red" stroke="black" stroke-width="1" />
  <path d="M205 205 L272 205 L205 272 Z" fill="red" stroke="black" stroke-width="1" />
  <path d="M272 205 L272 272 L205 272 Z" fill="red" stroke="black" stroke-width="1" />
  <path d="M272 205 L338 205 L272 272 Z" fill="red" stroke="black" stroke-width="1" />
  <path d="M338 205 L338 272 L272 272 Z" fill="red" stroke="black" stroke-width="1" />
  <path d="M338 205 L405 205 L338 272 Z" fill="red" stroke="black" stroke-width="1" />
  <path d="M5 272 L72 272 L5 338 Z" fill="red" stroke="black" stroke-width="1" />
  <path d="M72 272 L72 338 L5 338 Z" fill="red" stroke="black" stroke-width="1" />
  <path d="M72 272 L138 272 L72 338 Z" fill="red" stroke="black" stroke-width="1" />
  <path d="M138 272 L138 338 L72 338 Z" fill="red" stroke="black" stroke-width="1" />
  <path d="M138 272 L205 272 L138 338 Z" fill="red" stroke="black" stroke-width="1" />
  <path d="M205 272 L205 338 L138 338 Z" fill="red" stroke="black" stroke-width="1" />
  <path d="M205 272 L272 272 L205 338 Z" fill="red" stroke="black" stroke-width="1" />
  <path d="M272 272 L272 338 L205 338 Z" fill="red" stroke="black" stroke-width="1" />
  <path d="M272 272 L338 272 L272 338 Z" fill="red" stroke="black" stroke-width="1" />
  <path d="M5 338 L72 338 L5 405 Z" fill="red" stroke="black" stroke-width="1" />
  <path d="M72 338 L72 405 L5 405 Z" fill="red" stroke="black" stroke-width="1" />
  <path d="M72 338 L138 338 L72 405 Z" fill="red" stroke="black" stroke-width="1" />
  <path d="M138 338 L138 405 L72 405 Z" fill="red" stroke="black" stroke-width="1" />
  <path d="M138 338 L205 338 L138 405 Z" fill="red" stroke="black" stroke-width="1" />
  <path d="M205 338 L205 405 L138 405 Z" fill="red" stroke="black" stroke-width="1" />
  <path d="M205 338 L272 338 L205 405 Z" fill="red" stroke="black" stroke-width="1" />
  <path d="M5 405 L72 405 L5 472 Z" fill="red" stroke="black" stroke-width="1" />
  <path d="M72 405 L72 472 L5 472 Z" fill="red" stroke="black" stroke-width="1" />
  <path d="M72 405 L138 405 L72 472 Z" fill="red" stroke="black" stroke-width="1" />
  <path d="M138 405 L138 472 L72 472 Z" fill="red" stroke="black" stroke-width="1" />
  <path d="M138 405 L205 405 L138 472 Z" fill="red" stroke="black" stroke-width="1" />
  <path d="M5 472 L72 472 L5 538 Z" fill="red" stroke="black" stroke-width="1" />
  <path d="M72 472 L72 538 L5 538 Z" fill="red" stroke="black" stroke-width="1" />
  <path d="M72 472 L138 472 L72 538 Z" fill="red" stroke="black" stroke-width="1" />
  <path d="M5 538 L72 538 L5 605 Z" fill="red" stroke="black" stroke-width="1" />
</svg>
