<svg xmlns="http://www.w3.org/2000/svg" version="1.1"
  width="356" height="610" >
  <path d="M5 5 L43 5 L5 72 Z" fill="red" stroke="black" stroke-width="1" />
  <path d="M43 5 L43 72 L5 72 Z" fill="red" stroke="black" stroke-width="1" />
  <path d="M43 5 L82 5 L43 72 Z" fill="red" stroke="black" stroke-width="1" />
  <path d="M82 5 L82 72 L43 72 Z" fill="red" stroke="black" stroke-width="1" />
  <path d="M82 5 L120 5 L82 72 Z" fill="red" stroke="black" stroke-width="1" />
  <path d="M120 5 L120 72 L82 72 Z" fill="red" stroke="black" stroke-width="1" />
  <path d="M120 5 L159 5 L120 72 Z" fill="red" stroke="black" stroke-width="1" />
  <path d="M159 5 L159 72 L120 72 Z" fill="red" stroke="black" stroke-width="1" />
  <path d="M159 5 L197 5 L159 72 Z" fill="red" stroke="black" stroke-width="1" />
  <path d="M197 5 L197 72 L159 72 Z" fill="red" stroke="black" stroke-width="1" />
  <path d="M197 5 L236 5 L197 72 Z" fill="red" stroke="black" stroke-width="1" />
  <path d="M236 5 L236 72 L197 72 Z" fill="red" stroke="black" stroke-width="1" />
  <path d="M236 5 L274 5 L236 72 Z" fill="red" stroke="black" stroke-width="1" />
  <path d="M274 5 L274 72 L236 72 Z" fill="red" stroke="black" stroke-width="1" />
  <path d="M274 5 L313 5 L274 72 Z" fill="red" stroke="black" stroke-width="1" />
  <path d="M313 5 L313 72 L274 72 Z" fill="red" stroke="black" stroke-width="1" />
  <path d="M313 5 L351 5 L313 72 Z" fill="red" stroke="black" stroke-width="1" />
  <path d="M5 72 L43 72 L5 138 Z" fill="red" stroke="black" stroke-width="1" />
  <path d="M43 72 L43 138 L5 138 Z" fill="red" stroke="black" stroke-width="1" />
  <path d="M43 72 L82 72 L43 138 Z" fill="red" stroke="black" stroke-width="1" />
  <path d="M82 72 L82 138 L43 138 Z" fill="red" stroke="black" stroke-width="1" />
  <path d="M82 72 L120 72 L82 138 Z" fill="red" stroke="black" stroke-width="1" />
  <path d="M120 72 L120 138 L82 138 Z" fill="red" stroke="black" stroke-width="1" />
  <path d="M120 72 L159 72 L120 138 Z" fill="red" stroke="black" stroke-width="1" />
  <path d="M159 72 L159 138 L120 138 Z" fill="red" stroke="black" stroke-width="1" />
  <path d="M159 72 L197 72 L159 138 Z" fill="red" stroke="black" stroke-width="1" />
  <path d="M197 72 L197 138 L159 138 Z" fill="red" stroke="black" stroke-width="1" />
  <path d="M197 72 L236 72 L197 138 Z" fill="red" stroke="black" stroke-width="1" />
  <path d="M236 72 L236 138 L197 138 Z" fill="red" stroke="black" stroke-width="1" />
  <path d="M236 72 L274 72 L236 138 Z" fill="red" stroke="black" stroke-width="1" />
  <path d="M274 72 L274 138 L236 138 Z" fill="red" stroke="black" stroke-width="1" />
  <path d="M274 72 L313 72 L274 138 Z" fill="red" stroke="black" stroke-width="1" />
  <path d="M5 138 L43 138 L5 205 Z" fill="red" stroke="black" stroke-width="1" />
  <path d="M43 138 L43 205 L5 205 Z" fill="red" stroke="black" stroke-width="1" />
  <path d="M43 138 L82 138 L43 205 Z" fill="red" stroke="black" stroke-width="1" />
  <path d="M82 138 L82 205 L43 205 Z" fill="red" stroke="black" stroke-width="1" />
  <path d="M82 138 L120 138 L82 205 Z" fill="red" stroke="black" stroke-width="1" />
  <path d="M120 138 L120 205 L82 205 Z" fill="red" stroke="black" stroke-width="1" />
  <path d="M120 138 L159 138 L120 205 Z" fill="red" stroke="black" stroke-width="1" />
  <path d="M159 138 L159 205 L120 205 Z" fill="red" stroke="black" stroke-width="1" />
  <path d="M159 138 L197 138 L159 205 Z" fill="red" stroke="black" stroke-width="1" />
  <path d="M197 138 L197 205 L159 205 Z" fill="red" stroke="black" stroke-width="1" />
  <path d="M197 138 L236 138 L197 205 Z" fill="red" stroke="black" stroke-width="1" />
  <path d="M236 138 L236 205 L197 205 Z" fill="red" stroke="black" stroke-width="1" />
  <path d="M236 138 L274 138 L236 205 Z" fill="red" stroke="black" stroke-width="1" />
  <path d="M5 205 L43 205 L5 272 Z" fill="red" stroke="black" stroke-width="1" />
  <path d="M43 205 L43 272 L5 272 Z" fill="red" stroke="black" stroke-width="1" />
  <path d="M43 205 L82 205 L43 272 Z" fill="red" stroke="black" stroke-width="1" />
  <path d="M82 205 L82 272 L43 272 Z" fill="red" stroke="black" stroke-width="1" />
  <path d="M82 205 L120 205 L82 272 Z" fill="red" stroke="black" stroke-width="1" />
  <path d="M120 205 L120 272 L82 272 Z" fill="red" stroke="black" stroke-width="1" />
  <path d="M120 205 L159 205 L120 272 Z" fill="red" stroke="black" stroke-width="1" />
  <path d="M159 205 L159 272 L120 272 Z" fill="red" stroke="black" stroke-width="1" />
  <path d="M159 205 L197 205 L159 272 Z" fill="red" stroke="black" stroke-width="1" />
  <path d="M197 205 L197 272 L159 272 Z" fill="red" stroke="black" stroke-width="1" />
  <path d="M197 205 L236 205 L197 272 Z" fill="red" stroke="black" stroke-width="1" />
  <path d="M5 272 L43 272 L5 338 Z" fill="red" stroke="black" stroke-width="1" />
  <path d="M43 272 L43 338 L5 338 Z" fill="red" stroke="black" stroke-width="1" />
  <path d="M43 272 L82 272 L43 338 Z" fill="red" stroke="black" stroke-width="1" />
  <path d="M82 272 L82 338 L43 338 Z" fill="red" stroke="black" stroke-width="1" />
  <path d="M82 272 L120 272 L82 338 Z" fill="red" stroke="black" stroke-width="1" />
  <path d="M120 272 L120 338 L82 338 Z" fill="red" stroke="black" stroke-width="1" />
  <path d="M120 272 L159 272 L120 338 Z" fill="red" stroke="black" stroke-width="1" />
  <path d="M159 272 L159 338 L120 338 Z" fill="red" stroke="black" stroke-width="1" />
  <path d="M159 272 L197 272 L159 338 Z" fill="red" stroke="black" stroke-width="1" />
  <path d="M5 338 L43 338 L5 405 Z" fill="red" stroke="black" stroke-width="1" />
  <path d="M43 338 L43 405 L5 405 Z" fill="red" stroke="black" stroke-width="1" />
  <path d="M43 338 L82 338 L43 405 Z" fill="red" stroke="black" stroke-width="1" />
  <path d="M82 338 L82 405 L43 405 Z" fill="red" stroke="black" stroke-width="1" />
  <path d="M82 338 L120 338 L82 405 Z" fill="red" stroke="black" stroke-width="1" />
  <path d="M120 338 L120 405 L82 405 Z" fill="red" stroke="black" stroke-width="1" />
  <path d="M120 338 L159 338 L120 405 Z" fill="red" stroke="black" stroke-width="1" />
  <path d="M5 405 L43 405 L5 472 Z" fill="red" stroke="black" stroke-width="1" />
  <path d="M43 405 L43 472 L5 472 Z" fill="red" stroke="black" stroke-width="1" />
  <path d="M43 405 L82 405 L43 472 Z" fill="red" stroke="black" stroke-width="1" />
  <path d="M82 405 L82 472 L43 472 Z" fill="red" stroke="black" stroke-width="1" />
  <path d="M82 405 L120 405 L82 472 Z" fill="red" stroke="black" stroke-width="1" />
  <path d="M5 472 L43 472 L5 538 Z" fill="red" stroke="black" stroke-width="1" />
  <path d="M43 472 L43 538 L5 538 Z" fill="red" stroke="black" stroke-width="1" />
  <path d="M43 472 L82 472 L43 538 Z" fill="red" stroke="black" stroke-width="1" />
  <path d="M5 538 L43 538 L5 605 Z" fill="red" stroke="black" stroke-width="1" />
</svg>
